<?xml version="1.0" encoding="utf-8"?>
<!-- Generator: Adobe Illustrator 17.1.0, SVG Export Plug-In . SVG Version: 6.00 Build 0)  -->
<!DOCTYPE svg PUBLIC "-//W3C//DTD SVG 1.1//EN" "http://www.w3.org/Graphics/SVG/1.1/DTD/svg11.dtd">
<svg version="1.1" id="Layer_1" xmlns="http://www.w3.org/2000/svg" xmlns:xlink="http://www.w3.org/1999/xlink" x="0px" y="0px"
	 viewBox="0 0 65 65" enable-background="new 0 0 65 65" xml:space="preserve">
<circle fill="#E0745E" cx="32.5" cy="32.5" r="31.5"/>
<circle fill="#804E77" cx="32.5" cy="32.5" r="31.5"/>
<path fill="#451A3E" d="M32.5,37.8c3.3,0,6.3-2.9,6.3-6.3V18.1c0-3.4-3-6.3-6.3-6.3c-3.3,0-6.3,2.9-6.3,6.3v13.3
	C26.2,34.9,29.2,37.8,32.5,37.8z M43,30.7c0,6.1-4.7,11.2-10.5,11.2c-5.8,0-10.5-5.1-10.5-11.2h-4.2c0,7.6,5.6,14.5,12.6,15.5l0,6.9
	l4.2,0l0-6.9c7-1,12.6-8,12.6-15.5H43z"/>
</svg>
