<?xml version="1.0" encoding="utf-8"?>
<!-- Generator: Adobe Illustrator 17.1.0, SVG Export Plug-In . SVG Version: 6.00 Build 0)  -->
<!DOCTYPE svg PUBLIC "-//W3C//DTD SVG 1.1//EN" "http://www.w3.org/Graphics/SVG/1.1/DTD/svg11.dtd">
<svg version="1.1" id="Layer_1" xmlns="http://www.w3.org/2000/svg" xmlns:xlink="http://www.w3.org/1999/xlink" x="0px" y="0px"
	 viewBox="0 0 65 65" enable-background="new 0 0 65 65" xml:space="preserve">
<circle fill="#E0745E" cx="32.5" cy="32.5" r="31.5"/>
<circle fill="#804E77" cx="32.5" cy="32.5" r="31.5"/>
<rect x="126" y="-235.5" fill="#E8E8E9" width="476" height="750"/>
<rect x="126" y="-231.5" fill="#804E77" width="476" height="63"/>
<rect x="126" y="-235.5" fill="#270A33" width="476" height="63"/>
<g>
	<line fill="none" stroke="#E0745E" stroke-width="3" stroke-miterlimit="10" x1="126" y1="-199" x2="141" y2="-199"/>
	<line fill="none" stroke="#E0745E" stroke-width="3" stroke-miterlimit="10" x1="126" y1="-207" x2="141" y2="-207"/>
	<line fill="none" stroke="#E0745E" stroke-width="3" stroke-miterlimit="10" x1="126" y1="-191" x2="141" y2="-191"/>
</g>
<rect x="151" y="-137.5" fill="#FFFFFF" width="424" height="253"/>
<g>
	<rect x="151" y="-137.5" fill="#270A33" width="424" height="170"/>
</g>
<circle fill="#E0745E" cx="363.5" cy="32.5" r="32"/>
<polygon fill="#FFFFFF" points="356,45.8 356,21.2 377.2,33.5 "/>
<rect x="167" y="53.5" fill="none" width="124.7" height="14.5"/>
<text transform="matrix(1 0 0 1 166.9933 64.1401)"><tspan x="0" y="0" fill="#451A3E" font-family="'DroidSans-Bold'" font-size="14">125 </tspan><tspan x="26.8" y="0" fill="#451A3E" font-family="'DroidSans'" font-size="14">listens</tspan></text>
<rect x="505" y="53.5" fill="none" width="56" height="14.5"/>
<text transform="matrix(1 0 0 1 517.6123 64.1401)" fill="#451A3E" font-family="'DroidSans-Bold'" font-size="14">Feb 12</text>
<path fill="#804E77" d="M378.6-210.5h-1.9c0-1,0.1-2.2,0.1-3.6c0-7-5.7-12.6-12.7-12.6s-12.7,5.6-12.7,12.6c0,1.4,0,2.6,0.1,3.6
	h-1.9c-2.2,0-4.6,2-4.6,4.2v21c0,2.2,2.4,3.8,4.6,3.8h29c2.2,0,3.4-1.6,3.4-3.8v-21C382-208.5,380.8-210.5,378.6-210.5z
	 M355.4-214.1c0-4.8,3.9-8.6,8.7-8.6s8.7,3.8,8.7,8.6c0,1.4,0,2.6,0,3.6h-17.3C355.4-211.5,355.4-212.7,355.4-214.1z M369.9-198.2
	c-0.2,1.3-0.4,2.6-0.4,3.9c0,0.6,0.2,1.2,0.3,1.8c-0.6,0-0.9-0.3-1.1-0.9c-0.3-1.2-0.6-2.4-0.9-3.6c-0.3-1.2-0.8-2.4-1.7-3.3
	c-0.5-0.5-1.1-1-2.1-1c0,0.2,0,0.4,0,0.7c0,3.3,0.1,6.7,0.2,10c0.1,1.8-0.6,3-1.9,4.1c-0.8,0.7-1.7,1.1-2.8,1.3
	c-0.9,0.1-1.7,0-2.2-0.7c-0.6-0.8-0.6-1.7-0.1-2.6c1-1.7,2.1-2.7,4.1-2.9c0.7-0.1,0.8,0.2,1.8,0.4c0-3.3,0-6.8,0-10.2
	c0-1.3,0-2.7,0-4c0-0.5,0-0.9,0-1.4c1,0.3,1.9,0.5,2.6,0.9c0.2,0.1,0.7,0.3,0.8,0.3h0c1.2,1,2.2,2.1,3,3.4c0.1,0.2,0.2,0.4,0.3,0.5
	C370.2-200.5,370.1-199.3,369.9-198.2z"/>
<g>
	<rect x="166" y="-77.5" fill="none" width="397" height="46"/>
	<text transform="matrix(1 0 0 1 170.9956 -63.8203)"><tspan x="0" y="0" fill="#E8E8E9" font-family="'DroidSerif-BoldItalic'" font-size="18">I’ve haven’t told anyone this and I want to </tspan><tspan x="110" y="21.6" fill="#E8E8E9" font-family="'DroidSerif-BoldItalic'" font-size="18">get it off my chest.</tspan></text>
</g>
<rect x="165.5" y="84.5" fill="none" width="395.5" height="22.5"/>
<text transform="matrix(1 0 0 1 165.5 95.1401)" fill="#A9A9AB" font-family="'DroidSans'" font-size="14">#confession  #family  #guilt</text>
<rect x="151" y="146.5" fill="#FFFFFF" width="424" height="253"/>
<g>
	<rect x="151" y="146.5" fill="#270A33" width="424" height="170"/>
</g>
<g>
	<rect x="151" y="229.5" fill="#451A3E" width="22" height="87"/>
	<rect x="185" y="224.5" fill="#451A3E" width="22" height="92"/>
	<rect x="219" y="219.5" fill="#451A3E" width="22" height="97"/>
	<rect x="253" y="214.5" fill="#451A3E" width="22" height="102"/>
	<rect x="287" y="234.5" fill="#451A3E" width="22" height="82"/>
	<rect x="321" y="253.5" fill="#451A3E" width="22" height="63"/>
	<rect x="355" y="273.5" fill="#451A3E" width="22" height="43"/>
	<rect x="388" y="258.5" fill="#451A3E" width="21" height="58"/>
	<rect x="420" y="244.5" fill="#451A3E" width="22" height="72"/>
	<rect x="453" y="229.5" fill="#451A3E" width="21" height="87"/>
	<rect x="487" y="238.5" fill="#451A3E" width="21" height="78"/>
	<rect x="520" y="246.5" fill="#451A3E" width="21" height="70"/>
	<rect x="554" y="254.5" fill="#451A3E" width="21" height="62"/>
</g>
<circle fill="#E0745E" cx="-46.5" cy="33.5" r="32"/>
<rect x="167" y="337.5" fill="none" width="124.7" height="14.5"/>
<text transform="matrix(1 0 0 1 166.9933 348.1401)"><tspan x="0" y="0" fill="#451A3E" font-family="'DroidSans-Bold'" font-size="14">7,777,777 </tspan><tspan x="65.7" y="0" fill="#451A3E" font-family="'DroidSans'" font-size="14">listens</tspan></text>
<rect x="505" y="337.5" fill="none" width="56" height="14.5"/>
<text transform="matrix(1 0 0 1 525.3232 348.1401)" fill="#451A3E" font-family="'DroidSans-Bold'" font-size="14">Feb 9</text>
<g>
	<rect x="166" y="216.5" fill="none" width="397" height="46"/>
	<text transform="matrix(1 0 0 1 243.189 230.1797)" fill="#E8E8E9" font-family="'DroidSerif-BoldItalic'" font-size="18">If only I could tell her this.</text>
</g>
<rect x="165.5" y="368.5" fill="none" width="395.5" height="22.5"/>
<text transform="matrix(1 0 0 1 165.5 379.1401)" fill="#A9A9AB" font-family="'DroidSans'" font-size="14">#girls  #high school  #crush</text>
<rect x="624" y="-235.5" fill="#E8E8E9" width="476" height="750"/>
<rect x="624" y="-231.5" fill="#612556" width="476" height="63"/>
<rect x="624" y="-235.5" fill="#270A33" width="476" height="63"/>
<g>
	<line fill="none" stroke="#E3CD93" stroke-width="3" stroke-miterlimit="10" x1="624" y1="-199" x2="639" y2="-199"/>
	<line fill="none" stroke="#E3CD93" stroke-width="3" stroke-miterlimit="10" x1="624" y1="-207" x2="639" y2="-207"/>
	<line fill="none" stroke="#E3CD93" stroke-width="3" stroke-miterlimit="10" x1="624" y1="-191" x2="639" y2="-191"/>
</g>
<rect x="649" y="-137.5" fill="#FFFFFF" width="424" height="296"/>
<g>
	<g>
		<rect x="649" y="-137.5" fill="#270A33" width="424" height="170"/>
	</g>
	<circle fill="#E0745E" cx="861.5" cy="-53.5" r="32"/>
	<polygon fill="#E0745E" points="854,-40.2 854,-64.8 875.2,-52.5 	"/>
</g>
<rect x="664" y="53" fill="none" width="397" height="46"/>
<text transform="matrix(1 0 0 1 664 66.6797)"><tspan x="0" y="0" fill="#612556" font-family="'DroidSerif-BoldItalic'" font-size="18">I haven’t told this to anyone, and I’ve been </tspan><tspan x="0" y="21.6" fill="#612556" font-family="'DroidSerif-BoldItalic'" font-size="18">meaning to get this off my chest. </tspan></text>
<rect x="649.5" y="-158.5" fill="none" width="80" height="14.5"/>
<text transform="matrix(1 0 0 1 649.4863 -147.8599)"><tspan x="0" y="0" fill="#451A3E" font-family="'DroidSans-Bold'" font-size="14">100 </tspan><tspan x="26.8" y="0" fill="#451A3E" font-family="'DroidSans'" font-size="14">listens</tspan></text>
<rect x="1018" y="-158.5" fill="none" width="56" height="14.5"/>
<text transform="matrix(1 0 0 1 1038.3232 -147.8599)" fill="#451A3E" font-family="'DroidSans-Bold'" font-size="14">Feb 2</text>
<path fill="#804E77" d="M876.6-210.5h-1.9c0-1,0.1-2.2,0.1-3.6c0-7-5.7-12.6-12.7-12.6s-12.7,5.6-12.7,12.6c0,1.4,0,2.6,0.1,3.6
	h-1.9c-2.2,0-4.6,2-4.6,4.2v21c0,2.2,2.4,3.8,4.6,3.8h29c2.2,0,3.4-1.6,3.4-3.8v-21C880-208.5,878.8-210.5,876.6-210.5z
	 M853.4-214.1c0-4.8,3.9-8.6,8.7-8.6s8.7,3.8,8.7,8.6c0,1.4,0,2.6,0,3.6h-17.3C853.4-211.5,853.4-212.7,853.4-214.1z M867.9-198.2
	c-0.2,1.3-0.4,2.6-0.4,3.9c0,0.6,0.2,1.2,0.3,1.8c-0.6,0-0.9-0.3-1.1-0.9c-0.3-1.2-0.6-2.4-0.9-3.6c-0.3-1.2-0.8-2.4-1.7-3.3
	c-0.5-0.5-1.1-1-2.1-1c0,0.2,0,0.4,0,0.7c0,3.3,0.1,6.7,0.2,10c0.1,1.8-0.6,3-1.9,4.1c-0.8,0.7-1.7,1.1-2.8,1.3
	c-0.9,0.1-1.7,0-2.2-0.7c-0.6-0.8-0.6-1.7-0.1-2.6c1-1.7,2.1-2.7,4.1-2.9c0.7-0.1,0.8,0.2,1.8,0.4c0-3.3,0-6.8,0-10.2
	c0-1.3,0-2.7,0-4c0-0.5,0-0.9,0-1.4c1,0.3,1.9,0.5,2.6,0.9c0.2,0.1,0.7,0.3,0.8,0.3h0c1.2,1,2.2,2.1,3,3.4c0.1,0.2,0.2,0.4,0.3,0.5
	C868.2-200.5,868.1-199.3,867.9-198.2z"/>
<line fill="none" stroke="#E0745E" stroke-miterlimit="10" x1="664" y1="112" x2="1058" y2="112"/>
<rect x="663.5" y="127.5" fill="none" width="395.5" height="22.5"/>
<text transform="matrix(1 0 0 1 663.5 138.1401)" fill="#A9A9AB" font-family="'DroidSans'" font-size="14">#confession  #highschool</text>
<rect x="649" y="199.5" fill="#FFFFFF" width="424" height="296"/>
<g>
	<g>
		<rect x="649" y="199.5" fill="#270A33" width="424" height="170"/>
	</g>
	<g>
		<rect x="649" y="282.5" fill="#451A3E" width="22" height="87"/>
		<rect x="683" y="277.5" fill="#451A3E" width="22" height="92"/>
		<rect x="718" y="272.5" fill="#451A3E" width="21" height="97"/>
		<rect x="752" y="267.5" fill="#451A3E" width="21" height="102"/>
		<rect x="786" y="287.5" fill="#451A3E" width="21" height="82"/>
		<rect x="820" y="306.5" fill="#451A3E" width="21" height="63"/>
		<rect x="854" y="326.5" fill="#451A3E" width="21" height="43"/>
		<rect x="886" y="311.5" fill="#451A3E" width="22" height="58"/>
		<rect x="919" y="297.5" fill="#451A3E" width="21" height="72"/>
		<rect x="951" y="282.5" fill="#451A3E" width="22" height="87"/>
		<rect x="985" y="291.5" fill="#451A3E" width="21" height="78"/>
		<rect x="1019" y="299.5" fill="#451A3E" width="21" height="70"/>
		<rect x="1052" y="307.5" fill="#451A3E" width="21" height="62"/>
	</g>
	<circle fill="#E0745E" cx="861.5" cy="283.5" r="32"/>
</g>
<rect x="664" y="390" fill="none" width="397" height="46"/>
<text transform="matrix(1 0 0 1 664 403.6797)"><tspan x="0" y="0" fill="#612556" font-family="'DroidSerif-BoldItalic'" font-size="18">I haven’t told this to anyone, and I’ve been </tspan><tspan x="0" y="21.6" fill="#612556" font-family="'DroidSerif-BoldItalic'" font-size="18">meaning to get this off my chest. </tspan></text>
<rect x="649.5" y="178.5" fill="none" width="133" height="14.5"/>
<text transform="matrix(1 0 0 1 649.4863 189.1401)"><tspan x="0" y="0" fill="#451A3E" font-family="'DroidSans-Bold'" font-size="14">950,648,123 </tspan><tspan x="81.2" y="0" fill="#451A3E" font-family="'DroidSans'" font-size="14">listens</tspan></text>
<rect x="1018" y="178.5" fill="none" width="56" height="14.5"/>
<text transform="matrix(1 0 0 1 1038.3232 189.1401)" fill="#451A3E" font-family="'DroidSans-Bold'" font-size="14">Feb 2</text>
<line fill="none" stroke="#E0745E" stroke-miterlimit="10" x1="664" y1="449" x2="1058" y2="449"/>
<rect x="663.5" y="464.5" fill="none" width="395.5" height="22.5"/>
<text transform="matrix(1 0 0 1 663.5 475.1401)" fill="#A9A9AB" font-family="'DroidSans'" font-size="14">#confession  #highschool</text>
<rect x="852" y="272.5" fill="#E0745E" width="7" height="24"/>
<rect x="864" y="272.5" fill="#E0745E" width="7" height="24"/>
<rect x="1116" y="-235.5" fill="#E8E8E9" width="476" height="750"/>
<rect x="1116" y="-231.5" fill="#804E77" width="476" height="63"/>
<rect x="1116" y="-235.5" fill="#270A33" width="476" height="63"/>
<g>
	<line fill="none" stroke="#E0745E" stroke-width="3" stroke-miterlimit="10" x1="1116" y1="-199" x2="1131" y2="-199"/>
	<line fill="none" stroke="#E0745E" stroke-width="3" stroke-miterlimit="10" x1="1116" y1="-207" x2="1131" y2="-207"/>
	<line fill="none" stroke="#E0745E" stroke-width="3" stroke-miterlimit="10" x1="1116" y1="-191" x2="1131" y2="-191"/>
</g>
<rect x="1141" y="32.5" fill="#FFFFFF" width="424" height="51"/>
<rect x="1141" y="123.5" fill="#FFFFFF" width="424" height="51"/>
<g>
	<rect x="1141" y="-137.5" fill="#270A33" width="424" height="170"/>
</g>
<circle fill="#E0745E" cx="1353.5" cy="32.5" r="32"/>
<g>
	<defs>
		<rect id="SVGID_1_" x="1141" y="-137.5" width="424" height="170"/>
	</defs>
	<clipPath id="SVGID_2_">
		<use xlink:href="#SVGID_1_"  overflow="visible"/>
	</clipPath>
	<g clip-path="url(#SVGID_2_)">
		<circle fill="none" stroke="#451A3E" stroke-miterlimit="10" cx="1354" cy="33" r="278.5"/>
		<circle fill="none" stroke="#451A3E" stroke-miterlimit="10" cx="1354" cy="33" r="268.6"/>
		<circle fill="none" stroke="#451A3E" stroke-miterlimit="10" cx="1354" cy="33" r="258.7"/>
		<circle fill="none" stroke="#451A3E" stroke-miterlimit="10" cx="1354" cy="33" r="248.8"/>
		<circle fill="none" stroke="#451A3E" stroke-miterlimit="10" cx="1353.9" cy="32.9" r="238.9"/>
		<circle fill="none" stroke="#451A3E" stroke-miterlimit="10" cx="1353.9" cy="32.9" r="229"/>
		<circle fill="none" stroke="#451A3E" stroke-miterlimit="10" cx="1353.9" cy="32.9" r="219.2"/>
		<circle fill="none" stroke="#451A3E" stroke-miterlimit="10" cx="1353.9" cy="32.9" r="209.3"/>
		<circle fill="none" stroke="#451A3E" stroke-miterlimit="10" cx="1353.9" cy="32.9" r="199.4"/>
		<circle fill="none" stroke="#451A3E" stroke-miterlimit="10" cx="1353.9" cy="32.9" r="189.5"/>
		<circle fill="none" stroke="#451A3E" stroke-miterlimit="10" cx="1353.8" cy="32.8" r="179.6"/>
		<circle fill="none" stroke="#451A3E" stroke-miterlimit="10" cx="1353.8" cy="32.8" r="169.7"/>
		<circle fill="none" stroke="#451A3E" stroke-miterlimit="10" cx="1353.8" cy="32.8" r="159.8"/>
		<circle fill="none" stroke="#451A3E" stroke-miterlimit="10" cx="1353.8" cy="32.8" r="149.9"/>
		<circle fill="none" stroke="#451A3E" stroke-miterlimit="10" cx="1353.8" cy="32.8" r="140"/>
		<circle fill="none" stroke="#451A3E" stroke-miterlimit="10" cx="1353.8" cy="32.8" r="130.1"/>
		<circle fill="none" stroke="#451A3E" stroke-miterlimit="10" cx="1353.8" cy="32.8" r="120.2"/>
		<circle fill="none" stroke="#451A3E" stroke-miterlimit="10" cx="1353.7" cy="32.7" r="110.4"/>
		<circle fill="none" stroke="#451A3E" stroke-miterlimit="10" cx="1353.7" cy="32.7" r="100.5"/>
		<circle fill="none" stroke="#451A3E" stroke-miterlimit="10" cx="1353.7" cy="32.7" r="90.6"/>
		<circle fill="none" stroke="#451A3E" stroke-miterlimit="10" cx="1353.7" cy="32.7" r="80.7"/>
		<circle fill="none" stroke="#451A3E" stroke-miterlimit="10" cx="1353.7" cy="32.7" r="70.8"/>
		<circle fill="none" stroke="#451A3E" stroke-miterlimit="10" cx="1353.7" cy="32.7" r="60.9"/>
		<circle fill="none" stroke="#451A3E" stroke-miterlimit="10" cx="1353.6" cy="32.6" r="51"/>
		<circle fill="none" stroke="#451A3E" stroke-miterlimit="10" cx="1353.6" cy="32.6" r="41.1"/>
	</g>
</g>
<rect x="1154.5" y="-53.1" fill="none" width="397" height="21.5"/>
<text transform="matrix(1 0 0 1 1236.7778 -39.3841)" fill="#FFFFFF" font-family="'DroidSerif-BoldItalic'" font-size="18">Press and Hold to Record</text>
<path fill="#804E77" d="M1368.6-210.5h-1.9c0-1,0.1-2.2,0.1-3.6c0-7-5.7-12.6-12.7-12.6s-12.7,5.6-12.7,12.6c0,1.4,0,2.6,0.1,3.6
	h-1.9c-2.2,0-4.6,2-4.6,4.2v21c0,2.2,2.4,3.8,4.6,3.8h29c2.2,0,3.4-1.6,3.4-3.8v-21C1372-208.5,1370.8-210.5,1368.6-210.5z
	 M1345.4-214.1c0-4.8,3.9-8.6,8.7-8.6s8.7,3.8,8.7,8.6c0,1.4,0,2.6,0,3.6h-17.3C1345.4-211.5,1345.4-212.7,1345.4-214.1z
	 M1359.9-198.2c-0.2,1.3-0.4,2.6-0.4,3.9c0,0.6,0.2,1.2,0.3,1.8c-0.6,0-0.9-0.3-1.1-0.9c-0.3-1.2-0.6-2.4-0.9-3.6
	c-0.3-1.2-0.8-2.4-1.7-3.3c-0.5-0.5-1.1-1-2.1-1c0,0.2,0,0.4,0,0.7c0,3.3,0.1,6.7,0.2,10c0.1,1.8-0.6,3-1.9,4.1
	c-0.8,0.7-1.7,1.1-2.8,1.3c-0.9,0.1-1.7,0-2.2-0.7c-0.6-0.8-0.6-1.7-0.1-2.6c1-1.7,2.1-2.7,4.1-2.9c0.7-0.1,0.8,0.2,1.8,0.4
	c0-3.3,0-6.8,0-10.2c0-1.3,0-2.7,0-4c0-0.5,0-0.9,0-1.4c1,0.3,1.9,0.5,2.6,0.9c0.2,0.1,0.7,0.3,0.8,0.3h0c1.2,1,2.2,2.1,3,3.4
	c0.1,0.2,0.2,0.4,0.3,0.5C1360.2-200.5,1360.1-199.3,1359.9-198.2z"/>
<circle fill="#804E77" cx="562" cy="-202.1" r="22.4"/>
<path fill="#451A3E" d="M562.7-196.1c2.5,0,4.8-2.2,4.8-4.8v-10.2c0-2.6-2.3-4.8-4.8-4.8c-2.5,0-4.8,2.2-4.8,4.8v10.2
	C557.8-198.3,560.2-196.1,562.7-196.1z M570.7-201.5c0,4.7-3.6,8.6-8.1,8.6c-4.5,0-8.1-3.9-8.1-8.6h-3.2c0,5.8,4.3,11.2,9.7,11.9
	l0,5.3l3.2,0l0-5.3c5.4-0.8,9.7-6.1,9.7-11.9H570.7z"/>
<circle fill="#804E77" cx="-119" cy="-283.1" r="22.4"/>
<path fill="#451A3E" d="M-34.2-28.6c3.3,0,6.3-2.9,6.3-6.3v-13.3c0-3.4-3-6.3-6.3-6.3c-3.3,0-6.3,2.9-6.3,6.3v13.3
	C-40.5-31.5-37.4-28.6-34.2-28.6z M-23.7-35.6c0,6.1-4.7,11.2-10.5,11.2c-5.8,0-10.5-5.1-10.5-11.2h-4.2c0,7.6,5.6,14.5,12.6,15.5
	l0,6.9l4.2,0l0-6.9c7-1,12.6-8,12.6-15.5H-23.7z"/>
<path fill="#FFFFFF" d="M1353,37.5c2.5,0,4.8-2.2,4.8-4.8V22.5c0-2.6-2.3-4.8-4.8-4.8c-2.5,0-4.8,2.2-4.8,4.8v10.2
	C1348.2,35.3,1350.5,37.5,1353,37.5z M1361.1,32.2c0,4.7-3.6,8.6-8.1,8.6c-4.5,0-8.1-3.9-8.1-8.6h-3.2c0,5.8,4.3,11.2,9.7,11.9
	l0,5.3l3.2,0l0-5.3c5.4-0.8,9.7-6.1,9.7-11.9H1361.1z"/>
<g>
	<circle fill="#804E77" cx="1060" cy="-202.1" r="22.4"/>
	<path fill="#451A3E" d="M1060.7-196.1c2.5,0,4.8-2.2,4.8-4.8v-10.2c0-2.6-2.3-4.8-4.8-4.8c-2.5,0-4.8,2.2-4.8,4.8v10.2
		C1055.8-198.3,1058.2-196.1,1060.7-196.1z M1068.7-201.5c0,4.7-3.6,8.6-8.1,8.6c-4.5,0-8.1-3.9-8.1-8.6h-3.2
		c0,5.8,4.3,11.2,9.7,11.9l0,5.3l3.2,0l0-5.3c5.4-0.8,9.7-6.1,9.7-11.9H1068.7z"/>
</g>
<rect x="634" y="-235.5" opacity="0.75" fill="#270A33" width="467" height="751"/>
<rect x="633" y="-235.5" opacity="0.75" fill="#270A33" width="242" height="751"/>
<rect x="624" y="-235.5" fill="#E8E8E9" width="247" height="751"/>
<rect x="624" y="-231.5" fill="#804E77" width="247" height="63"/>
<rect x="624" y="-235.5" fill="#270A33" width="247" height="63"/>
<path fill="#804E77" d="M756.1-210.5h-1.9c0-1,0.1-2.2,0.1-3.6c0-7-5.7-12.6-12.7-12.6s-12.7,5.6-12.7,12.6c0,1.4,0,2.6,0.1,3.6
	h-1.9c-2.2,0-4.6,2-4.6,4.2v21c0,2.2,2.4,3.8,4.6,3.8h29c2.2,0,3.4-1.6,3.4-3.8v-21C759.5-208.5,758.3-210.5,756.1-210.5z
	 M733-214.1c0-4.8,3.9-8.6,8.7-8.6s8.7,3.8,8.7,8.6c0,1.4,0,2.6,0,3.6H733C733-211.5,733-212.7,733-214.1z M747.5-198.2
	c-0.2,1.3-0.4,2.6-0.4,3.9c0,0.6,0.2,1.2,0.3,1.8c-0.6,0-0.9-0.3-1.1-0.9c-0.3-1.2-0.6-2.4-0.9-3.6c-0.3-1.2-0.8-2.4-1.7-3.3
	c-0.5-0.5-1.1-1-2.1-1c0,0.2,0,0.4,0,0.7c0,3.3,0.1,6.7,0.2,10c0.1,1.8-0.6,3-1.9,4.1c-0.8,0.7-1.7,1.1-2.8,1.3
	c-0.9,0.1-1.7,0-2.2-0.7c-0.6-0.8-0.6-1.7-0.1-2.6c1-1.7,2.1-2.7,4.1-2.9c0.7-0.1,0.8,0.2,1.8,0.4c0-3.3,0-6.8,0-10.2
	c0-1.3,0-2.7,0-4c0-0.5,0-0.9,0-1.4c1,0.3,1.9,0.5,2.6,0.9c0.2,0.1,0.7,0.3,0.8,0.3h0c1.2,1,2.2,2.1,3,3.4c0.1,0.2,0.2,0.4,0.3,0.5
	C747.7-200.5,747.6-199.3,747.5-198.2z"/>
<g>
	<text transform="matrix(1 0 0 1 644.3391 -191)"><tspan x="0" y="0" fill="#FFFFFF" font-family="'DroidSerif-BoldItalic'" font-size="21">Secret</tspan><tspan x="66.2" y="0" fill="#FFFFFF" font-family="'DroidSerif-BoldItalic'" font-size="21" letter-spacing="-2"> </tspan><tspan x="69.5" y="0" fill="#FFFFFF" font-family="'DroidSerif-BoldItalic'" font-size="21">          Sounds</tspan></text>
</g>
<rect x="664.5" y="-131.5" fill="none" width="245.5" height="46"/>
<text transform="matrix(1 0 0 1 664.4998 -117.8203)" fill="#612556" font-family="'DroidSerif-BoldItalic'" font-size="18">Home</text>
<rect x="664.5" y="-86.8" fill="none" width="245.5" height="46"/>
<text transform="matrix(1 0 0 1 664.4998 -73.1536)" fill="#612556" font-family="'DroidSerif-BoldItalic'" font-size="18">Settings</text>
<rect x="664.5" y="-40.2" fill="none" width="245.5" height="46"/>
<text transform="matrix(1 0 0 1 664.4998 -26.5005)" fill="#612556" font-family="'DroidSerif-BoldItalic'" font-size="18">About</text>
<rect x="664.5" y="5.8" fill="none" width="245.5" height="46"/>
<text transform="matrix(1 0 0 1 664.4998 19.4995)" fill="#612556" font-family="'DroidSerif-BoldItalic'" font-size="18">Donate</text>
<circle fill="#E0745E" cx="647.8" cy="-123.2" r="8.8"/>
<rect x="1141.3" y="106" fill="none" width="200.7" height="14.5"/>
<text transform="matrix(1 0 0 1 1141.2958 116.6401)"><tspan x="0" y="0" fill="#451A3E" font-family="'DroidSans-Bold'" font-size="14">Title </tspan><tspan x="33.8" y="0" fill="#451A3E" font-family="'DroidSans'" font-size="14">(256 character limit)</tspan></text>
<rect x="1141" y="209.5" fill="#FFFFFF" width="424" height="51"/>
<rect x="1141.3" y="192" fill="none" width="252.7" height="14.5"/>
<text transform="matrix(1 0 0 1 1141.2958 202.6401)"><tspan x="0" y="0" fill="#451A3E" font-family="'DroidSans-Bold'" font-size="14">Tags </tspan><tspan x="33.8" y="0" fill="#451A3E" font-family="'DroidSans'" font-size="14">(4 tag limit, seperate by commas)</tspan></text>
<rect x="1154.8" y="143.5" fill="none" width="397" height="21.5"/>
<text transform="matrix(1 0 0 1 1154.75 157.1797)" fill="#E8E8E9" font-family="'DroidSerif-BoldItalic'" font-size="18">Title</text>
<rect x="1156.2" y="227.5" fill="none" width="395.5" height="22.5"/>
<text transform="matrix(1 0 0 1 1156.25 238.1401)" fill="#E8E8E9" font-family="'DroidSans'" font-size="14">tags</text>
<path fill="#804E77" d="M1332,347.5c0,2.2-1.8,4-4,4h-183c-2.2,0-4-1.8-4-4v-43c0-2.2,1.8-4,4-4h183c2.2,0,4,1.8,4,4V347.5z"/>
<g>
	<text transform="matrix(1 0 0 1 1204.2031 332.5)" fill="#FFFFFF" font-family="'DroidSerif-BoldItalic'" font-size="18">Cancel</text>
</g>
<path fill="#E0745E" d="M1565,347.5c0,2.2-1.8,4-4,4h-183c-2.2,0-4-1.8-4-4v-43c0-2.2,1.8-4,4-4h183c2.2,0,4,1.8,4,4V347.5z"/>
<g>
	<text transform="matrix(1 0 0 1 1435.4014 332.5)" fill="#FFFFFF" font-family="'DroidSerif-BoldItalic'" font-size="18">Submit</text>
</g>
<rect x="220" y="-365.5" fill="#270A33" width="272" height="50"/>
<rect x="492" y="-365.5" fill="#804E77" width="84" height="50"/>
<rect x="576" y="-365.5" fill="#E0745E" width="84" height="50"/>
<rect x="660" y="-365.5" fill="#FFFFFF" width="42" height="50"/>
<rect x="702" y="-365.5" fill="#E8E8E9" width="42" height="50"/>
<g>
	<text transform="matrix(1 0 0 1 16.8463 54.9991)" fill="#451A3E" font-family="'DroidSerif-Bold'" font-size="59.6111">?</text>
</g>
</svg>
